<?xml version="1.0" encoding="utf-8"?>
<!-- Generator: Adobe Illustrator 27.7.0, SVG Export Plug-In . SVG Version: 6.00 Build 0)  -->
<svg version="1.1" id="INFO" xmlns="http://www.w3.org/2000/svg" xmlns:xlink="http://www.w3.org/1999/xlink" x="0px" y="0px"
	 width="46px" height="20px" viewBox="0 0 46 20" style="enable-background:new 0 0 46 20;" xml:space="preserve">
<style type="text/css">
	.st0{fill:#FFFFFF;}
	.st1{fill:none;stroke:#000000;stroke-width:4;}
	.st2{enable-background:new    ;}
</style>
<g id="Ellipse_1">
	<circle class="st0" cx="10" cy="10" r="10"/>
	<circle class="st1" cx="10" cy="10" r="8"/>
</g>
<g class="st2">
	<path d="M9.3,7.4V6.3h1.3v1.2H9.3z M10.6,13H9.4V8.1h1.3V13z"/>
</g>
<g class="st2">
	<path d="M24.8,13V6.4h1.3V13H24.8z"/>
	<path d="M31.9,13l-0.1-0.7l-2.8-3.8V13h-1.3V6.4h1.3l2.9,3.9V6.4h1.3V13H31.9z"/>
	<path d="M38.6,7.5h-2.9v1.9h2.4v1.1h-2.4V13h-1.3V6.4h4.2V7.5z"/>
	<path d="M42.4,13.1c-2.2,0-2.9-1.3-2.9-3.4c0-2.1,0.9-3.4,2.9-3.4c2.1,0,3,1.3,3,3.4C45.3,11.8,44.5,13.1,42.4,13.1z M42.4,7.5
		c-1.3,0-1.6,0.9-1.6,2.2c0,1.3,0.3,2.2,1.6,2.2c1.3,0,1.6-1,1.6-2.2C43.9,8.4,43.7,7.5,42.4,7.5z"/>
</g>
<g class="st2">
	<path d="M24.8,13V6.4h1.3V13H24.8z"/>
	<path d="M31.9,13l-0.1-0.7l-2.8-3.8V13h-1.3V6.4h1.3l2.9,3.9V6.4h1.3V13H31.9z"/>
	<path d="M38.6,7.5h-2.9v1.9h2.4v1.1h-2.4V13h-1.3V6.4h4.2V7.5z"/>
	<path d="M42.4,13.1c-2.2,0-2.9-1.3-2.9-3.4c0-2.1,0.9-3.4,2.9-3.4c2.1,0,3,1.3,3,3.4C45.3,11.8,44.5,13.1,42.4,13.1z M42.4,7.5
		c-1.3,0-1.6,0.9-1.6,2.2c0,1.3,0.3,2.2,1.6,2.2c1.3,0,1.6-1,1.6-2.2C43.9,8.4,43.7,7.5,42.4,7.5z"/>
</g>
</svg>
