<?xml version="1.0" encoding="utf-8"?>
<!-- Generator: Adobe Illustrator 27.7.0, SVG Export Plug-In . SVG Version: 6.00 Build 0)  -->
<svg version="1.1" id="Layer_1" xmlns="http://www.w3.org/2000/svg" xmlns:xlink="http://www.w3.org/1999/xlink" x="0px" y="0px"
	 width="70.6px" height="70.6px" viewBox="0 0 70.6 70.6" style="enable-background:new 0 0 70.6 70.6;" xml:space="preserve">
<circle id="Ellipse_1" style="fill:#010101;" cx="35.3" cy="35.3" r="35.3"/>
<g style="enable-background:new    ;">
	<path style="fill:#F4EBDA;" d="M45.9,28.5c0,1.2-0.2,2.2-0.7,3.1c-0.5,0.9-1.1,1.6-1.8,2.3c-0.7,0.6-1.5,1.2-2.3,1.7
		c-0.8,0.5-1.6,0.9-2.3,1.4c-0.7,0.4-1.3,0.9-1.8,1.3c-0.5,0.4-0.7,1-0.7,1.5H31c0-1,0.1-1.9,0.3-2.7c0.2-0.8,0.5-1.5,0.8-2.1
		s0.7-1.1,1.1-1.6c0.4-0.5,0.7-1,1-1.5c0.3-0.5,0.6-1,0.8-1.5c0.2-0.5,0.3-1.1,0.3-1.8s-0.1-1.2-0.4-1.7c-0.3-0.5-0.7-0.8-1.1-1.1
		c-0.5-0.2-1-0.4-1.6-0.4c-0.6,0-1.2,0.1-1.8,0.4c0.8,0.2,1.4,0.6,1.9,1.1c0.5,0.5,0.7,1.3,0.7,2.3c0,0.4-0.1,0.9-0.3,1.3
		c-0.2,0.4-0.5,0.8-0.9,1.1s-0.9,0.6-1.4,0.8s-1.2,0.3-2,0.3c-0.6,0-1.1-0.1-1.7-0.2c-0.6-0.1-1.1-0.4-1.6-0.8
		c-0.5-0.4-0.9-0.9-1.2-1.5c-0.3-0.6-0.5-1.4-0.5-2.3c0-1.1,0.3-2.1,0.9-3c0.6-0.9,1.4-1.6,2.4-2.2s2.2-1.1,3.6-1.4
		c1.4-0.3,3-0.5,4.6-0.5c3.7,0,6.4,0.7,8.2,2C45,24.3,45.9,26.1,45.9,28.5z M28.9,45.7c0-0.7,0.1-1.3,0.4-1.9
		c0.3-0.6,0.6-1.1,1.1-1.6s1-0.8,1.5-1.1c0.6-0.3,1.2-0.4,1.9-0.4c0.7,0,1.3,0.1,1.9,0.4c0.6,0.3,1.1,0.6,1.6,1.1
		c0.4,0.4,0.8,1,1.1,1.6c0.3,0.6,0.4,1.2,0.4,1.9c0,0.7-0.1,1.3-0.4,1.9c-0.3,0.6-0.6,1.1-1.1,1.5c-0.4,0.4-1,0.8-1.6,1.1
		c-0.6,0.3-1.2,0.4-1.9,0.4c-0.7,0-1.3-0.1-1.9-0.4c-0.6-0.3-1.1-0.6-1.5-1.1s-0.8-1-1.1-1.5C29,47.1,28.9,46.4,28.9,45.7z"/>
</g>
</svg>
