<?xml version="1.0" encoding="utf-8"?>
<!-- Generator: Adobe Illustrator 27.7.0, SVG Export Plug-In . SVG Version: 6.00 Build 0)  -->
<svg version="1.1" id="Layer_1" xmlns="http://www.w3.org/2000/svg" xmlns:xlink="http://www.w3.org/1999/xlink" x="0px" y="0px"
	 width="166px" height="80px" viewBox="0 0 166 80" style="enable-background:new 0 0 166 80;" xml:space="preserve">
<style type="text/css">
	.st0{enable-background:new    ;}
</style>
<g id="LOGO" transform="translate(1)">
	<g class="st0">
		<path d="M16.1,44.7H9.3V56H2.6V23h12.1c7.3,0,12.7,2.9,12.7,10.1c0,5-1,6.6-5,9.9l6,13h-7.1L16.1,44.7z M14.5,28.6H9.3v10.6h8.6
			c2.4-2.2,2.7-3,2.7-6C20.5,29.9,17.9,28.6,14.5,28.6z"/>
		<path d="M32.7,56V23h20.8v5.6H39.4v8.1h10.2v5.5H39.4v8.2h14.3V56H32.7z"/>
		<path d="M78.5,56l-2-5.8H64.4L62.5,56h-6.8L66,23H75l10.8,33H78.5z M70.5,29.4h-0.4l-4.4,15.2h9.4L70.5,29.4z"/>
		<path d="M88.9,23h6.7v27.2h14.5V56H88.9V23z"/>
		<path d="M115.2,23h6.7v27.2h14.5V56h-21.1V23z"/>
		<path d="M148.1,42.6L137.7,23h7.4l6.3,13.2l6.1-13.2h7.3l-10,19.5V56h-6.7V42.6z"/>
	</g>
	<g class="st0">
		<path d="M58.4,5.3H60L55.1,20h-2.2L48,5.3h1.5l4.4,13.3h0.2L58.4,5.3z"/>
		<path d="M63.1,20V5.3h1.4V20H63.1z"/>
		<path d="M74.5,20.3c-1.8,0-4.5-0.3-5.9-0.5l0.2-1.3c1.3,0.3,4.1,0.6,5.7,0.6c1.6,0,3-1.1,3-3c0-1.6-1-2.2-4.3-2.8
			c-3.5-0.7-4.8-1.6-4.8-4c0-2.7,2-4,4.4-4c1.7,0,4.4,0.3,5.8,0.6L78.5,7c-1.3-0.2-4-0.6-5.6-0.6c-1.6,0-3,0.9-3,2.7
			c0,1.6,0.9,2.1,3.9,2.7c3.9,0.8,5.2,1.6,5.2,4C79,18.8,77.1,20.3,74.5,20.3z"/>
		<path d="M82.9,20V5.3h1.4V20H82.9z"/>
		<path d="M94.4,20.2c-4.5,0-6.1-3.1-6.1-7.6s1.7-7.5,6.1-7.5c4.5,0,6.1,3,6.1,7.5S98.8,20.2,94.4,20.2z M94.4,6.4
			c-3.6,0-4.6,2.4-4.6,6.2c0,3.7,1,6.3,4.6,6.3c3.6,0,4.7-2.6,4.7-6.3C99,8.9,98,6.4,94.4,6.4z"/>
		<path d="M113.5,20l-0.2-1.8l-8.3-10.6V20h-1.4V5.3h1.4l8.3,10.7V5.3h1.4V20H113.5z"/>
	</g>
	<g class="st0">
		<path d="M50.7,64.2l0.1-2.6l-4.5,7.7h-1.1l-4.5-7.7l0.1,2.7V74h-1.4V59.3h1.5l4.8,8.4l4.8-8.4h1.5V74h-1.4V64.2z"/>
		<path d="M65.2,74l-1.1-3.2H57L55.8,74h-1.5l5.3-14.7h2L66.8,74H65.2z M60.6,60.6L60.6,60.6l-3.3,9h6.4L60.6,60.6z"/>
		<path d="M72.3,60.6V74h-1.4V60.6H66v-1.3h10.6v1.3H72.3z"/>
		<path d="M83.8,60.6V74h-1.4V60.6h-4.8v-1.3h10.6v1.3H83.8z"/>
		<path d="M90.5,74V59.3h8.9v1.2h-7.4V66h5.7v1.2h-5.7v5.5h7.5V74H90.5z"/>
		<path d="M108.4,68.3h-5V74H102V59.3h4.5c3.3,0,5.6,1.1,5.6,4.3c0,1.9-0.7,2.8-2.4,4.1l2.9,6.2h-1.5L108.4,68.3z M106.5,60.6h-3.1
			V67h5.2c1.4-1.2,2-1.9,2-3.3C110.7,61.3,109.1,60.6,106.5,60.6z"/>
		<path d="M120.7,74.3c-1.8,0-4.5-0.3-5.9-0.5l0.2-1.3c1.3,0.3,4.1,0.6,5.7,0.6c1.6,0,3-1.1,3-3c0-1.6-1-2.2-4.3-2.8
			c-3.5-0.7-4.8-1.6-4.8-4c0-2.7,2-4,4.4-4c1.7,0,4.4,0.3,5.8,0.6l-0.2,1.3c-1.3-0.2-4-0.6-5.6-0.6s-3,0.9-3,2.7
			c0,1.6,0.9,2.1,3.9,2.7c3.9,0.8,5.2,1.6,5.2,4C125.2,72.8,123.3,74.3,120.7,74.3z"/>
	</g>
</g>
</svg>
