<?xml version="1.0" encoding="utf-8"?>
<!-- Generator: Adobe Illustrator 27.7.0, SVG Export Plug-In . SVG Version: 6.00 Build 0)  -->
<svg version="1.1" id="Language" xmlns="http://www.w3.org/2000/svg" xmlns:xlink="http://www.w3.org/1999/xlink" x="0px" y="0px"
	 width="50px" height="20px" viewBox="0 0 50 20" style="enable-background:new 0 0 50 20;" xml:space="preserve">
<style type="text/css">
	.st0{enable-background:new    ;}
	.st1{fill:#F7F7F7;}
</style>
<circle id="Ellipse_15" cx="40" cy="10" r="10"/>
<g class="st0">
	<path d="M5.5,10.1l0.1-1.6l-1.4,2.6h-1L1.9,8.5L2,10.1V13H0.6V6.4h1.5l1.6,3.2l1.6-3.2h1.5V13H5.5V10.1z"/>
	<path d="M8.1,13V6.4h4.1v1.1H9.5v1.6h2v1.1h-2v1.6h2.8V13H8.1z"/>
	<path d="M17.7,13l-0.1-0.7l-2.8-3.8V13h-1.3V6.4h1.3l2.9,3.9V6.4h1.3V13H17.7z"/>
	<path d="M25.6,6.4v4c0,1.8-0.8,2.7-2.8,2.7c-1.9,0-2.7-0.9-2.7-2.7v-4h1.3v4c0,1.1,0.4,1.6,1.4,1.6c1.1,0,1.4-0.5,1.4-1.6v-4H25.6z
		"/>
</g>
<circle id="Ellipse_16" class="st1" cx="40" cy="10" r="7"/>
<path id="Rectangle_10" d="M36,6h8c0.6,0,1,0.4,1,1l0,0c0,0.6-0.4,1-1,1h-8c-0.6,0-1-0.4-1-1l0,0C35,6.4,35.4,6,36,6z"/>
<path id="Rectangle_11" d="M36,9h8c0.6,0,1,0.4,1,1l0,0c0,0.6-0.4,1-1,1h-8c-0.6,0-1-0.4-1-1l0,0C35,9.4,35.4,9,36,9z"/>
<path id="Rectangle_12" d="M36,12h8c0.6,0,1,0.4,1,1l0,0c0,0.6-0.4,1-1,1h-8c-0.6,0-1-0.4-1-1l0,0C35,12.4,35.4,12,36,12z"/>
</svg>
