<?xml version="1.0" standalone="no"?>
<!DOCTYPE svg PUBLIC "-//W3C//DTD SVG 20010904//EN"
 "http://www.w3.org/TR/2001/REC-SVG-20010904/DTD/svg10.dtd">
<svg version="1.0" xmlns="http://www.w3.org/2000/svg"
 width="500.000000pt" height="500.000000pt" viewBox="0 0 500.000000 500.000000"
 preserveAspectRatio="xMidYMid meet">
<metadata>
Created by potrace 1.14, written by Peter Selinger 2001-2017
</metadata>
<g transform="translate(0.000000,500.000000) scale(0.100000,-0.100000)"
fill="#000000" stroke="none">
<path d="M2366 4803 c-1 -1 -36 -5 -79 -8 -42 -3 -87 -8 -99 -10 -13 -3 -42
-7 -65 -10 -23 -3 -52 -9 -65 -14 -13 -4 -31 -7 -40 -6 -10 2 -18 0 -18 -4 0
-4 -11 -8 -25 -9 -45 -3 -55 -5 -55 -12 0 -3 -8 -6 -17 -7 -34 -2 -77 -14 -90
-25 -7 -6 -13 -8 -13 -4 0 4 -13 0 -30 -9 -16 -8 -32 -15 -35 -15 -3 0 -6 0
-7 -1 -2 0 -10 -2 -18 -4 -8 -2 -28 -9 -45 -16 -16 -7 -32 -13 -35 -14 -27 -9
-70 -28 -92 -41 -16 -8 -28 -12 -28 -9 0 4 -12 -2 -27 -13 -16 -10 -54 -31
-85 -47 -32 -15 -58 -32 -58 -37 0 -5 -4 -7 -9 -3 -5 3 -13 0 -17 -6 -3 -6
-22 -17 -40 -25 -19 -8 -34 -19 -34 -25 0 -5 -4 -8 -9 -4 -6 3 -13 -1 -18 -8
-4 -7 -25 -23 -45 -36 -21 -12 -38 -28 -38 -33 0 -6 -3 -9 -6 -5 -4 3 -12 1
-19 -6 -7 -7 -28 -23 -46 -37 -18 -14 -41 -33 -51 -42 -10 -10 -23 -18 -29
-18 -5 0 -7 -4 -4 -10 3 -5 1 -10 -6 -10 -6 0 -56 -45 -110 -100 -55 -55 -97
-100 -93 -100 3 0 -6 -11 -20 -24 -15 -13 -26 -26 -26 -29 0 -4 -12 -20 -28
-36 -37 -41 -74 -90 -70 -93 2 -2 -9 -17 -24 -33 -15 -16 -25 -32 -22 -37 3
-4 0 -8 -6 -8 -6 0 -9 -4 -6 -9 4 -5 2 -11 -2 -13 -12 -4 -82 -121 -82 -136 0
-6 -4 -12 -9 -12 -10 0 -27 -39 -23 -52 1 -5 -3 -8 -9 -8 -5 0 -7 -4 -4 -10 3
-5 2 -10 -3 -10 -10 0 -36 -58 -33 -72 0 -5 -3 -8 -9 -8 -6 0 -9 -3 -9 -7 1
-5 0 -10 -1 -13 -1 -3 -3 -14 -5 -25 -7 -40 -32 -95 -40 -88 -4 5 -5 2 -1 -5
4 -7 2 -19 -4 -27 -7 -8 -9 -15 -5 -15 4 0 2 -7 -5 -15 -7 -8 -9 -15 -4 -15 4
0 3 -5 -3 -11 -6 -6 -9 -18 -6 -27 4 -8 2 -13 -3 -9 -5 3 -10 -2 -11 -11 -1
-16 -9 -50 -13 -62 -1 -3 -2 -9 -1 -14 1 -4 -4 -14 -10 -22 -6 -8 -8 -14 -4
-14 4 0 2 -6 -4 -14 -6 -7 -9 -21 -5 -30 3 -9 2 -16 -4 -16 -6 0 -8 -8 -5 -18
2 -10 -3 -58 -12 -108 -11 -56 -19 -169 -22 -304 -5 -187 -3 -234 16 -364 12
-81 20 -154 17 -162 -3 -7 -1 -16 5 -20 6 -3 8 -11 6 -17 -2 -7 1 -26 8 -42 6
-17 11 -38 9 -48 -1 -9 1 -17 6 -17 4 0 11 -17 15 -38 4 -20 12 -43 18 -51 10
-12 9 -13 -2 -7 -8 6 -7 0 4 -18 10 -14 14 -26 11 -26 -4 0 1 -11 10 -25 9
-14 13 -25 9 -25 -4 0 -2 -6 4 -13 6 -8 8 -17 4 -20 -3 -4 -1 -7 6 -7 7 0 9
-4 6 -10 -3 -5 1 -23 10 -40 8 -16 16 -33 16 -37 1 -18 64 -143 72 -143 4 0 6
-4 3 -9 -3 -5 1 -14 9 -21 8 -7 15 -18 15 -26 0 -7 7 -20 16 -28 8 -9 12 -16
7 -16 -4 0 -3 -4 2 -8 6 -4 21 -27 34 -52 78 -143 315 -416 466 -535 28 -22
52 -42 55 -46 3 -3 43 -32 90 -66 305 -218 701 -371 1070 -411 124 -13 518 -6
615 11 325 59 548 138 804 285 87 50 210 129 221 142 3 3 34 28 69 55 84 64
272 251 347 345 263 330 420 684 490 1100 12 73 18 171 20 325 2 212 -4 288
-40 485 -17 92 -97 352 -124 405 -9 17 -17 35 -18 40 -3 19 -89 190 -96 193
-5 2 -8 9 -8 14 0 13 -60 110 -75 120 -5 4 -7 8 -2 8 10 0 -44 80 -54 80 -5 0
-9 5 -9 10 0 15 -80 120 -91 120 -5 0 -9 6 -9 13 -1 17 -46 67 -61 67 -7 0 -9
3 -6 7 12 12 -192 205 -308 291 -38 28 -77 58 -85 65 -8 8 -25 18 -37 21 -13
4 -23 11 -23 16 0 5 -12 15 -27 23 -47 23 -136 73 -172 95 -19 12 -38 19 -43
16 -4 -3 -8 -1 -8 4 0 9 -37 25 -52 23 -5 -1 -8 4 -8 9 0 5 -3 9 -7 8 -5 -1
-21 4 -38 12 -16 7 -46 20 -65 28 -19 8 -41 15 -47 15 -7 0 -13 5 -13 10 0 6
-3 8 -6 5 -3 -4 -21 0 -40 8 -19 8 -37 15 -41 15 -5 1 -12 3 -18 5 -61 19
-114 31 -119 27 -3 -4 -6 -2 -6 3 0 5 -8 10 -17 10 -10 1 -29 4 -43 7 -144 34
-260 46 -468 50 -79 1 -145 1 -146 0z"/>
</g>
</svg>
