<?xml version="1.0" standalone="no"?>
<!DOCTYPE svg PUBLIC "-//W3C//DTD SVG 20010904//EN"
 "http://www.w3.org/TR/2001/REC-SVG-20010904/DTD/svg10.dtd">
<svg version="1.0" xmlns="http://www.w3.org/2000/svg"
 width="482.000000pt" height="482.000000pt" viewBox="0 0 482.000000 482.000000"
 preserveAspectRatio="xMidYMid meet">
<metadata>
Created by potrace 1.14, written by Peter Selinger 2001-2017
</metadata>
<g transform="translate(0.000000,482.000000) scale(0.100000,-0.100000)"
fill="#000000" stroke="none">
<path d="M2340 4503 c0 -8 -11 -11 -30 -9 -17 2 -33 -1 -36 -6 -4 -6 -10 -5
-15 3 -5 8 -9 9 -9 4 0 -10 -39 -14 -118 -15 -13 0 -21 -4 -18 -9 3 -4 -6 -6
-21 -3 -20 4 -24 2 -18 -9 7 -11 6 -12 -6 -2 -12 10 -18 10 -29 0 -10 -10 -11
-9 -5 2 6 10 4 12 -6 5 -15 -9 -35 -15 -59 -16 -8 0 -19 -4 -25 -8 -5 -4 -18
-6 -27 -5 -10 2 -18 -1 -18 -6 0 -6 -4 -8 -9 -5 -5 4 -12 0 -14 -6 -4 -10 -6
-10 -6 0 -1 10 -5 10 -16 -2 -9 -8 -22 -13 -29 -10 -8 3 -17 1 -20 -5 -4 -6
-14 -7 -23 -4 -11 4 -14 3 -9 -5 5 -8 2 -10 -8 -6 -9 3 -16 1 -16 -5 0 -6 -7
-8 -15 -5 -8 4 -15 1 -15 -5 0 -6 -5 -11 -11 -11 -5 0 -7 6 -3 13 4 6 -2 4
-13 -5 -11 -10 -24 -18 -30 -18 -6 0 -16 -7 -23 -15 -10 -12 -16 -13 -26 -4
-9 8 -14 8 -14 1 0 -10 -40 -28 -49 -23 -2 2 -7 -1 -10 -6 -8 -12 -84 -48 -94
-45 -4 1 -10 -5 -13 -13 -3 -8 -10 -12 -15 -9 -5 3 -9 0 -9 -6 0 -6 -4 -8 -10
-5 -5 3 -10 1 -10 -5 0 -6 -4 -9 -9 -6 -5 3 -12 -1 -15 -10 -3 -8 -10 -12 -16
-9 -5 3 -10 1 -10 -5 0 -6 -5 -8 -10 -5 -5 3 -10 2 -10 -3 0 -5 -9 -12 -21
-15 -12 -3 -18 -10 -14 -16 3 -7 0 -8 -9 -5 -9 3 -16 1 -16 -5 0 -6 -6 -11
-14 -11 -7 0 -21 -10 -30 -22 -9 -13 -14 -16 -10 -8 7 13 5 13 -9 1 -9 -7 -14
-17 -11 -22 3 -5 2 -9 -3 -8 -21 4 -34 -3 -66 -35 -20 -19 -38 -32 -40 -30 -2
3 -16 -9 -31 -26 -14 -17 -26 -29 -26 -25 0 3 -14 -9 -32 -27 -18 -18 -36 -32
-41 -30 -5 2 -7 -6 -4 -17 3 -14 1 -18 -9 -14 -8 3 -14 0 -14 -7 0 -6 -4 -8
-10 -5 -9 5 -15 -10 -7 -18 5 -5 -28 -35 -35 -31 -4 3 -19 -15 -34 -38 -15
-24 -31 -44 -35 -46 -5 -2 -9 -10 -9 -18 0 -7 -11 -21 -26 -30 -14 -10 -23
-23 -20 -31 3 -8 2 -12 -2 -10 -12 6 -39 -28 -36 -47 2 -12 -2 -16 -12 -12 -8
3 -14 -1 -14 -9 0 -8 -5 -15 -11 -15 -5 0 -7 -5 -4 -10 3 -6 -1 -13 -9 -16 -9
-3 -13 -10 -10 -15 3 -5 -1 -12 -10 -15 -8 -3 -13 -14 -11 -25 2 -11 0 -17 -4
-15 -7 5 -35 -43 -31 -53 1 -2 -5 -8 -14 -13 -8 -5 -13 -15 -10 -23 4 -8 1
-15 -6 -15 -7 0 -10 -7 -6 -16 3 -8 2 -13 -3 -10 -9 6 -21 -15 -27 -44 -2 -8
-8 -16 -14 -18 -5 -2 -8 -8 -5 -12 3 -5 -4 -25 -15 -45 -11 -20 -15 -33 -8
-29 7 4 3 -4 -10 -18 -17 -19 -20 -27 -10 -31 10 -3 7 -11 -9 -29 -18 -19 -20
-27 -10 -38 9 -10 9 -12 0 -6 -13 7 -16 0 -16 -36 0 -10 -4 -15 -8 -12 -5 3
-9 -4 -9 -16 0 -12 -5 -31 -11 -42 -8 -16 -8 -19 1 -13 7 4 6 -2 -3 -16 -8
-13 -13 -32 -12 -41 2 -10 -1 -18 -7 -18 -6 0 -8 -9 -5 -20 3 -11 1 -20 -4
-20 -4 0 -6 -7 -3 -15 4 -8 0 -23 -7 -32 -12 -14 -12 -16 1 -8 12 7 13 6 4 -6
-6 -8 -12 -21 -12 -29 -1 -37 -11 -101 -17 -110 -3 -5 -1 -10 6 -10 8 0 7 -5
-2 -17 -10 -11 -10 -14 -1 -9 6 4 12 2 12 -3 0 -6 -4 -11 -8 -11 -4 0 -8 -20
-8 -45 -1 -27 3 -42 9 -38 6 4 7 1 1 -8 -10 -16 -14 -180 -4 -174 4 2 7 -2 7
-10 0 -8 -4 -12 -7 -10 -4 3 -7 -9 -6 -25 0 -17 5 -30 11 -30 5 0 3 -5 -5 -10
-11 -7 -12 -10 -2 -10 9 0 11 -7 7 -19 -3 -11 -1 -22 5 -26 8 -5 8 -10 0 -20
-8 -10 -8 -15 0 -20 6 -4 8 -16 4 -27 -4 -15 -3 -18 6 -13 9 6 9 3 1 -14 -10
-18 -9 -21 6 -21 15 0 16 -2 3 -10 -8 -5 -10 -10 -4 -10 6 0 10 -11 9 -25 -2
-14 1 -25 7 -25 6 0 5 -6 -2 -15 -10 -12 -10 -15 0 -15 7 0 10 -6 7 -14 -3 -7
2 -24 10 -37 13 -17 13 -20 2 -14 -11 7 -12 6 -3 -6 6 -8 16 -33 24 -56 8 -26
17 -40 24 -36 6 4 5 -1 -3 -11 -11 -13 -12 -19 -3 -25 7 -4 15 -21 18 -37 3
-16 11 -32 17 -36 9 -6 9 -8 -1 -8 -7 0 -10 -5 -7 -10 4 -6 10 -8 14 -6 4 3 8
-5 8 -16 1 -12 6 -24 11 -27 5 -3 8 -14 6 -23 -1 -10 3 -21 8 -25 7 -4 8 -1 3
7 -5 8 -4 11 3 6 6 -3 9 -15 7 -25 -2 -11 3 -22 11 -25 8 -3 14 -12 14 -21 0
-17 20 -56 34 -66 5 -4 5 -13 0 -20 -6 -11 -5 -12 7 -2 12 10 15 8 15 -7 0
-10 -5 -16 -11 -13 -5 2 0 -4 12 -14 11 -10 23 -27 25 -38 2 -11 9 -19 16 -18
6 2 9 -3 6 -11 -3 -8 0 -17 7 -22 8 -5 10 -3 4 6 -5 8 -4 11 3 6 6 -4 9 -12 6
-19 -3 -8 6 -25 20 -40 13 -14 21 -28 18 -31 -3 -3 0 -6 7 -6 7 0 9 -5 5 -12
-5 -8 -2 -9 10 -5 9 4 15 3 11 -2 -7 -13 5 -42 16 -35 5 3 9 0 9 -6 0 -6 7
-18 15 -27 8 -8 13 -19 10 -24 -6 -8 8 -13 28 -10 4 0 7 -5 7 -12 0 -16 69
-93 81 -90 5 2 5 -5 2 -14 -5 -13 -2 -15 12 -9 11 4 16 4 13 0 -9 -8 56 -74
73 -74 7 0 10 -3 6 -6 -9 -10 30 -47 42 -39 7 3 10 1 9 -6 -2 -7 7 -18 20 -24
12 -5 22 -15 22 -22 0 -7 3 -12 8 -12 20 3 32 -2 29 -14 -1 -7 7 -12 20 -11
14 1 20 -3 16 -12 -3 -8 1 -14 11 -14 9 0 16 -5 16 -11 0 -6 7 -8 16 -5 9 3
12 2 9 -5 -4 -6 2 -13 14 -16 12 -3 21 -8 21 -12 0 -4 16 -13 35 -21 19 -7 32
-17 29 -22 -5 -7 10 -12 29 -9 4 0 7 -4 7 -9 0 -6 10 -10 22 -10 12 0 19 -3
15 -6 -3 -4 10 -15 30 -25 20 -10 39 -17 41 -14 3 3 11 -4 19 -15 8 -11 23
-20 34 -20 10 0 19 -4 19 -10 0 -5 5 -10 11 -10 5 0 7 6 3 13 -4 6 4 1 19 -12
14 -12 30 -20 36 -16 6 3 11 1 11 -5 0 -7 6 -10 12 -8 7 3 19 -1 26 -9 8 -7
18 -10 23 -7 6 3 17 -2 24 -12 11 -15 15 -16 15 -4 1 10 4 9 10 -5 5 -11 9
-14 9 -6 1 10 4 11 15 2 7 -6 25 -12 40 -13 14 -1 26 -7 26 -12 0 -5 3 -6 7
-3 3 4 15 -1 26 -10 11 -10 17 -12 13 -6 -4 7 -2 13 3 13 6 0 11 -4 11 -10 0
-5 5 -10 11 -10 5 0 8 4 4 10 -3 5 7 3 21 -5 15 -8 31 -12 36 -9 4 3 8 1 8 -5
0 -5 9 -8 20 -6 11 2 20 0 20 -6 0 -5 5 -9 11 -9 5 0 7 5 4 10 -9 15 2 12 19
-6 9 -8 16 -10 16 -4 0 8 6 8 21 -1 12 -6 34 -9 50 -7 15 3 26 1 23 -4 -8 -13
11 -9 25 4 7 7 12 9 11 3 -5 -22 1 -27 15 -15 12 10 15 10 15 -1 0 -11 2 -11
10 1 7 11 10 11 10 2 0 -10 5 -10 21 -1 17 9 20 8 14 -2 -6 -9 -4 -11 7 -6 9
3 19 3 22 -1 11 -10 46 -9 46 2 0 6 5 4 10 -4 5 -8 10 -10 10 -4 0 8 11 9 34
4 19 -4 39 -4 45 -1 6 4 29 6 51 4 21 -1 50 1 63 6 16 6 28 6 36 -2 8 -8 11
-8 11 2 0 10 3 11 14 2 10 -9 16 -9 21 -1 4 6 13 9 21 6 8 -3 14 0 14 7 0 8 4
6 10 -3 5 -8 10 -10 10 -4 0 5 14 9 30 8 17 -1 30 2 30 6 0 5 9 7 20 5 11 -2
20 2 20 8 0 7 4 6 10 -3 6 -9 10 -11 10 -3 0 7 7 10 15 7 8 -4 15 -2 15 4 0 6
10 8 22 4 13 -3 19 -1 15 5 -4 6 4 8 20 5 15 -3 24 -1 20 5 -3 5 4 9 16 8 12
-1 28 2 35 8 6 5 12 6 12 2 0 -4 7 -2 15 5 12 10 15 10 15 -1 1 -10 4 -8 11 3
5 10 15 18 20 18 6 0 7 -6 3 -13 -4 -6 5 -1 21 13 16 14 25 19 21 13 -11 -19
5 -16 21 4 8 10 12 12 8 6 -4 -9 -1 -11 9 -7 9 3 13 10 10 15 -3 5 3 6 12 2
10 -4 20 0 26 11 5 9 14 14 19 10 5 -3 16 0 24 6 8 7 15 9 15 4 0 -4 7 1 16
12 8 10 12 13 9 6 -6 -11 -3 -12 13 -3 12 6 24 16 27 21 4 6 11 8 16 5 5 -4 9
-1 9 5 0 7 6 10 14 7 8 -3 22 3 31 13 9 10 28 21 41 24 14 4 22 11 19 16 -3 5
4 7 15 5 11 -2 18 -1 16 4 -3 4 4 13 16 20 16 10 19 10 13 -1 -3 -7 1 -4 10 7
9 11 21 19 26 18 5 -2 9 2 9 8 0 5 5 7 12 3 7 -5 9 -2 5 9 -4 11 -2 14 9 10 8
-3 23 4 34 17 11 13 20 19 20 15 0 -4 12 5 26 21 15 16 23 23 19 16 -6 -11 -3
-11 13 -1 12 7 19 15 16 18 -2 2 14 16 36 31 22 15 37 30 33 33 -3 4 0 7 9 7
8 0 27 15 43 34 16 19 32 33 36 30 4 -2 10 5 14 16 4 11 10 18 15 15 5 -3 11
4 15 15 4 11 10 18 15 15 5 -3 11 3 15 14 3 11 13 22 21 25 8 3 12 10 9 16 -3
5 1 10 9 10 9 0 16 5 16 11 0 7 10 20 22 30 11 11 17 19 12 19 -5 0 2 7 14 16
12 8 20 19 17 24 -3 5 4 11 15 15 11 3 20 13 20 21 0 8 5 14 11 14 5 0 7 5 4
10 -3 6 1 13 9 16 9 3 13 10 10 16 -3 5 1 15 9 21 8 7 24 29 35 49 10 21 22
35 26 31 3 -3 6 1 6 11 0 10 7 24 16 33 8 9 13 22 10 30 -3 8 -1 11 4 8 6 -3
10 3 10 14 0 12 5 21 11 21 6 0 9 7 6 14 -4 10 -1 13 7 10 9 -3 13 3 12 18 -1
13 6 30 16 39 10 9 15 19 12 22 -4 3 7 30 23 59 17 29 29 61 27 70 -1 10 2 20
7 24 5 3 7 10 4 15 -4 5 -1 9 5 9 6 0 8 5 5 10 -3 6 -1 10 5 10 6 0 8 5 5 10
-4 6 -1 18 6 26 6 8 9 17 5 21 -3 3 1 17 10 31 11 17 12 22 3 16 -11 -6 -12
-5 -2 8 7 8 10 18 6 21 -3 4 -1 7 6 7 7 0 11 6 8 14 -3 7 0 19 6 26 9 10 9 11
0 6 -7 -4 -9 1 -6 14 3 11 9 18 13 15 4 -2 5 7 2 20 -2 14 0 25 5 25 5 0 10
17 11 38 5 70 8 87 16 100 4 7 2 19 -4 27 -10 11 -10 15 -1 15 8 0 10 11 7 30
-2 16 0 33 6 36 6 4 5 10 -3 15 -11 7 -11 9 1 9 13 0 13 1 0 10 -8 5 -10 10
-4 10 11 0 10 51 -2 72 -5 9 -2 8 11 -2 15 -12 17 -12 10 -1 -4 8 -9 31 -11
53 -2 21 -6 43 -10 50 -4 6 -3 8 2 5 6 -3 10 11 9 34 0 21 -4 39 -10 39 -5 0
-3 5 5 10 8 5 10 10 4 10 -6 0 -10 15 -9 35 1 19 -1 35 -4 35 -5 0 -8 28 -11
105 -1 10 -6 26 -13 34 -10 12 -9 13 3 6 13 -8 13 -6 2 8 -8 9 -11 21 -7 27 3
5 1 10 -4 10 -6 0 -11 5 -11 11 0 5 4 7 10 4 6 -3 7 1 4 9 -3 9 -10 16 -14 16
-5 0 -7 8 -6 18 2 9 -4 23 -13 30 -9 8 -10 10 -3 7 18 -10 12 26 -8 42 -13 11
-13 14 0 23 12 7 12 10 1 10 -7 0 -11 6 -7 15 3 8 1 15 -5 15 -6 0 -8 4 -4 9
3 5 1 12 -5 16 -6 4 -8 11 -5 16 4 5 2 9 -2 9 -5 0 -9 10 -10 21 -1 12 -10 31
-20 42 -10 11 -12 17 -5 13 17 -10 15 9 -3 27 -8 8 -11 17 -8 21 4 3 1 6 -5 6
-6 0 -9 7 -5 17 4 11 3 14 -5 9 -8 -5 -12 1 -12 17 0 13 -9 33 -20 45 -12 12
-16 23 -10 27 6 4 8 11 4 16 -3 5 -10 7 -15 4 -5 -3 -6 1 -3 9 4 10 1 16 -10
16 -9 0 -13 6 -10 15 4 8 -1 17 -9 21 -9 3 -13 13 -10 25 4 13 0 19 -11 19 -9
0 -16 8 -16 20 0 11 -5 20 -10 20 -6 0 -9 6 -8 13 2 6 -3 11 -10 9 -8 -1 -11
2 -8 7 4 5 2 12 -4 16 -6 4 -8 11 -5 16 4 5 -1 12 -9 15 -9 3 -14 10 -11 14 3
4 -2 10 -10 14 -8 3 -15 10 -15 16 0 11 -9 24 -42 61 -10 10 -18 22 -18 25 0
4 -12 18 -27 32 -16 13 -21 21 -13 16 8 -4 -2 9 -22 30 -21 22 -38 43 -38 48
0 5 -4 6 -10 3 -5 -3 -10 1 -10 9 0 9 -7 16 -16 16 -8 0 -12 5 -9 10 3 6 -2
10 -11 10 -10 0 -15 3 -11 6 8 8 -18 34 -34 34 -7 0 -10 3 -6 6 6 7 -17 34
-29 34 -4 0 -17 11 -29 24 -13 14 -26 22 -29 19 -3 -4 -6 1 -6 10 0 11 -5 14
-17 10 -10 -4 -14 -2 -10 4 3 5 -5 20 -18 31 -14 12 -25 19 -25 14 0 -4 -4 -2
-8 3 -16 23 -65 54 -75 48 -5 -3 -8 -2 -5 3 3 5 0 15 -8 22 -11 10 -14 10 -14
0 -1 -7 -6 -4 -13 8 -7 12 -18 19 -26 16 -8 -3 -11 0 -7 7 6 10 -6 15 -26 12
-5 0 -8 6 -8 14 0 14 -18 20 -49 16 -7 -2 -10 2 -6 8 3 6 -1 11 -9 11 -9 0
-16 5 -16 10 0 6 -7 10 -16 10 -8 0 -22 7 -31 15 -8 8 -19 13 -24 10 -5 -4 -9
-1 -9 5 0 6 -4 8 -10 5 -5 -3 -10 -1 -10 5 0 6 -4 8 -10 5 -5 -3 -10 1 -10 10
0 13 -4 14 -21 4 -15 -8 -19 -8 -15 0 5 7 -4 14 -23 17 -17 4 -29 10 -26 14 3
4 -4 10 -15 13 -11 3 -18 1 -14 -4 10 -17 -5 -9 -26 13 -11 12 -20 16 -20 9 0
-7 -5 -9 -10 -6 -6 4 -8 10 -6 14 6 9 -25 8 -41 -2 -6 -4 -15 -2 -19 4 -4 8
-3 9 4 5 7 -4 12 -2 12 3 0 10 -20 15 -47 12 -7 -1 -13 2 -13 8 0 5 -9 7 -20
4 -11 -3 -20 0 -20 6 0 6 -5 11 -11 11 -5 0 -7 -6 -3 -12 4 -7 -2 -5 -13 5
-11 9 -23 14 -26 10 -4 -3 -7 -2 -7 4 0 5 -18 9 -40 9 -22 -1 -40 2 -40 6 0 4
-9 5 -20 3 -12 -2 -18 0 -14 6 4 7 -6 10 -28 8 -18 -2 -39 0 -46 5 -6 4 -12 5
-12 1 0 -3 -8 -1 -18 4 -13 7 -23 6 -30 -1 -9 -9 -12 -9 -12 -1 0 7 -12 11
-27 9 -16 -1 -36 1 -45 6 -14 7 -18 4 -19 -9 0 -15 -2 -15 -7 -3 -7 16 -58 20
-79 7 -6 -4 -14 -3 -18 3 -4 7 -12 7 -25 0 -13 -7 -21 -7 -25 0 -4 6 -11 7
-17 4 -6 -4 -14 0 -19 7 -6 10 -9 10 -9 2z"/>
</g>
</svg>
